<svg width="21" height="21" viewBox="0 0 107 128" version="1.1" style="fill-rule:evenodd;clip-rule:evenodd;stroke-linejoin:round;stroke-miterlimit:2;">
    <g id="Page-1">
        <g id="_6">
            <g id="iconmonstr-antenna-5">
                <g>
                    <path id="Shape" d="M0,128L15.772,128L34.764,117.333L53.757,128L69.529,128L34.764,95.999L0,128ZM107,85.107C107,102.543 75.66,103.172 54.64,94.654C18.072,79.832 3.124,42.439 12.819,13.744C17.313,0.431 22.727,-6.737 46.7,8.826C52.591,12.645 58.845,17.622 65.088,23.344L55.886,29.489C14.6,-7.894 18.479,18.63 50.627,53.757C81.967,87.982 113.051,99.705 81.481,57.581L87.895,48.274C94.438,56.989 107,74.264 107,85.107ZM101.511,18.774C101.49,23.195 97.873,26.758 93.443,26.731C92.239,26.726 91.111,26.433 90.083,25.953L69.598,56.066C65.404,53.106 58.93,46.636 55.966,42.444L86.365,22.336C85.809,21.232 85.461,20.006 85.466,18.688C85.493,14.267 89.104,10.704 93.529,10.73C97.959,10.757 101.538,14.357 101.511,18.774Z" style="fill-rule:nonzero;"/>
                </g>
            </g>
        </g>
    </g>
</svg>
